<?xml version="1.0" encoding="UTF-8"?>
<svg xmlns="http://www.w3.org/2000/svg" viewBox="0 0 700 700" width="700" height="700">
<path d="M331.02 11.32C332.35 11.22 333.67 11.11 335 11.01C347.33 11.02 359.67 11.02 372 11.03C373.31 11.13 374.63 11.23 375.94 11.33C379.3 11.56 382.65 11.8 386 12.03C386.71 12.13 387.41 12.22 388.12 12.31C390.74 12.56 393.37 12.8 396 13.04C396.36 13.13 396.73 13.21 397.09 13.29C399.06 13.54 401.03 13.79 403 14.04C403.35 14.12 403.71 14.21 404.06 14.29C406.08 14.56 408.1 14.82 410.12 15.08C412.1 15.41 414.08 15.75 416.07 16.09C417.71 16.42 419.36 16.75 421 17.08C429.5 20.46 439.52 21.64 448.39 24.18C464.68 28.86 481.02 34.83 496.25 42.27C571.55 79.08 631.7 141.26 663.4 219.15C671.95 240.17 678.77 262.19 682.74 284.56C683.92 291.18 685.11 297.82 685.89 304.5C686.48 309.56 686.42 315.27 687.86 320.08C688.13 325.71 688.4 331.35 688.67 336.98C688.74 337.65 688.81 338.33 688.87 339C688.88 345 688.88 351 688.88 357C688.81 357.63 688.74 358.26 688.67 358.88C688.4 364.23 688.13 369.58 687.86 374.92C686.41 379.72 686.54 385.45 685.92 390.5C684.93 398.53 683.53 406.56 681.98 414.5C677.28 438.62 669.44 461.75 659.8 484.31C626.92 561.22 560.3 625.65 483.23 657.69C464.84 665.33 445.88 671.45 426.47 675.91C419.87 677.43 413.19 678.81 406.5 679.87C402.64 680.48 398.45 680.62 394.81 681.86C392.16 682.13 389.51 682.4 386.86 682.67C386.57 682.74 386.29 682.81 386 682.88C382.35 683.15 378.7 683.42 375.05 683.68C374.7 683.75 374.35 683.82 374 683.89C360.33 683.9 346.67 683.91 333 683.92C332.36 683.84 331.73 683.75 331.09 683.67C327.36 683.42 323.63 683.16 319.89 682.91C316.98 682.56 314.06 682.21 311.15 681.86C307.52 680.67 303.33 680.48 299.5 679.87C292.48 678.76 285.48 677.41 278.55 675.84C254.67 670.43 230.76 662.57 208.77 651.69C131.43 613.43 68.38 547.79 38.2 466.34C27.3 436.9 21.44 407.08 17.75 376C17.61 374.31 17.47 372.62 17.32 370.93C17.12 366.96 16.93 362.98 16.73 359C16.72 352 16.72 345 16.72 338C16.92 333.68 17.12 329.37 17.32 325.05C17.47 323.04 17.62 321.02 17.77 319C21.17 291.71 25.54 265.06 34.47 238.93C61.66 159.31 117.85 91.76 191.68 51.19C212.54 39.72 234.69 30.72 257.52 23.99C264.84 21.84 272.27 19.99 279.73 18.37C283.13 17.63 286.78 17.28 290 16.08C291.65 15.75 293.31 15.42 294.96 15.09C297.01 14.84 299.05 14.58 301.1 14.32C301.73 14.21 302.37 14.1 303 13.99C304.97 13.76 306.94 13.53 308.91 13.3C309.27 13.22 309.64 13.15 310 13.07C312.69 12.82 315.39 12.57 318.08 12.32C318.72 12.23 319.36 12.14 320 12.04C323.67 11.8 327.35 11.56 331.02 11.32ZM332.98 36.68C330.65 36.84 328.33 37 326 37.16C324.05 37.35 322.1 37.53 320.15 37.72C318.77 37.86 317.38 38.01 316 38.15C314.36 38.34 312.71 38.53 311.07 38.71C287.82 40.38 264.02 47.56 242.28 55.72C166.75 84.08 105.44 141.67 70.74 214.27C58.36 240.17 45.72 275.38 43.7 304.03C43.48 305.69 43.26 307.34 43.03 309C42.92 309.68 42.81 310.36 42.7 311.03C42.48 313.02 42.25 315.01 42.03 317C41.92 318.05 41.81 319.09 41.7 320.14C41.46 323.76 41.23 327.38 40.99 331C40.88 332.95 40.78 334.91 40.67 336.86C40.67 345.24 40.68 353.61 40.68 361.99C40.78 363.33 40.88 364.66 40.98 366C41.21 369.34 41.45 372.68 41.68 376.02C41.79 377.02 41.91 378.01 42.02 379C42.25 381.28 42.48 383.56 42.71 385.84C43.15 388.56 43.58 391.28 44.01 394C44.25 395.64 44.49 397.28 44.72 398.92C46.88 424.35 58.27 455.36 68.89 478.58C100.54 547.83 156.97 602.97 226.22 634.32C254.73 647.22 286.76 657.31 318.14 659.29C320.09 659.47 322.05 659.65 324 659.83C325.95 660 327.89 660.17 329.84 660.33C332.89 660.51 335.95 660.69 339 660.87C348.33 660.86 357.67 660.85 367 660.85C370.03 660.67 373.07 660.5 376.1 660.32C378.07 660.16 380.03 659.99 382 659.82C383.95 659.64 385.89 659.46 387.84 659.28C415.63 657.58 444.19 649.02 469.81 638.38C540.94 608.86 599.84 554.33 633.44 484.91C644.92 461.18 657.89 427.07 660.28 400.9C660.53 399.27 660.78 397.63 661.02 396C661.11 395.63 661.2 395.26 661.29 394.89C661.55 392.93 661.81 390.96 662.07 389C662.15 388.67 662.23 388.34 662.31 388.01C662.57 385.31 662.84 382.61 663.1 379.92C663.44 375.93 663.77 371.94 664.11 367.96C664.31 366.3 664.5 364.65 664.7 363C664.7 353.33 664.7 343.67 664.71 334C664.51 332.02 664.31 330.03 664.11 328.05C663.77 324.06 663.44 320.07 663.1 316.07C662.84 313.67 662.59 311.27 662.33 308.86C662.25 308.57 662.18 308.29 662.1 308C661.83 306.03 661.56 304.07 661.29 302.1C661.2 301.74 661.12 301.37 661.03 301C660.78 299.35 660.54 297.71 660.29 296.06C657.7 267.9 644.61 234.67 632.2 209.32C598.71 140.92 542.55 89.48 472.76 59.7C445.54 48.08 414.8 39.11 385.14 37.67C383.42 37.5 381.71 37.33 380 37.17C377.63 37.01 375.27 36.86 372.9 36.7C368.6 36.51 364.3 36.31 360 36.11C355 36.12 350 36.13 345 36.14C340.99 36.32 336.98 36.5 332.98 36.68ZM264.1 105C264.11 108 264.11 111 264.11 114C264.11 118 264.11 122 264.1 126C264.29 127.72 264.48 129.43 264.67 131.15C266.23 138.6 267.79 146.05 269.36 153.5C262.97 153.48 257.14 151.84 250.86 154.43C246.61 156.18 243.88 159.98 239.98 161.86C239.93 157.24 239.88 152.62 239.83 148C241.61 135.13 243.94 121.49 252.96 111.46C255.59 108.52 260.03 102.88 264.1 105ZM465.24 147C465.39 148.98 465.53 150.95 465.68 152.93C465.6 156.19 466.3 159.57 464.5 162.07C459.18 157.01 454.22 152.96 446.5 152.68C442.99 152.55 439.53 153.6 436.1 153.5C437.49 146.96 438.89 140.43 440.28 133.89C440.52 131.93 440.75 129.96 440.99 128C441.1 127.03 441.21 126.06 441.32 125.09C441.32 121.45 441.31 117.8 441.3 114.16C441.19 113.11 441.08 112.05 440.97 111C440.95 109.33 440.93 107.67 440.91 106C441.78 105.38 442.64 104.75 443.5 104.13C459.04 112.03 463.05 131.35 465.24 147ZM412.83 163.5C411.29 167.14 408.32 170.28 406.27 173.76C401.34 182.13 396.91 190.9 393.53 200.02C384.12 225.41 379.52 252.08 372.59 278.18C370.2 287.2 367.35 296.94 362.47 304.96C360.42 308.33 357.79 311.89 353.5 312.07C348.38 312.29 345.15 308.82 342.74 304.74C338.05 296.81 335.41 287.32 332.92 278.51C325.51 252.29 321.31 225.39 311.62 199.8C308.51 191.6 304.86 183.69 300.37 176.16C297.8 171.87 294.51 167.87 292.19 163.5C297.56 163.91 303.74 168.48 308.77 170.68C320.11 175.64 332.12 179.78 344.5 180.92C359.79 182.31 375.09 179.43 389.27 173.7C396.24 170.89 406.12 165.16 412.83 163.5ZM258 170.68C259.67 170.68 261.33 170.69 263 170.7C284.93 175.43 296.45 199.3 302.65 218.77C304.03 223.11 304.53 227.71 305.99 232C306.23 233.65 306.47 235.3 306.7 236.95C306.81 237.64 306.92 238.32 307.03 239C307.24 242.01 307.46 245.02 307.67 248.03C307.67 251.33 307.67 254.64 307.67 257.94C307.46 260.29 307.25 262.65 307.04 265C305.38 271.11 304.3 277.16 301.39 282.87C292.32 300.68 274.88 302.12 260.75 288.74C243.74 272.64 237.32 249.34 233.74 227C233.6 224.97 233.47 222.93 233.33 220.9C233.87 202.78 235.58 174.89 258 170.68ZM470.9 200.01C471.17 201.99 471.43 203.98 471.69 205.96C471.77 206.31 471.85 206.65 471.93 207C471.93 213.33 471.94 219.67 471.94 226C471.86 226.36 471.78 226.73 471.7 227.09C471.45 229.4 471.19 231.7 470.93 234C468.77 239.93 468.05 246.46 466.05 252.5C461.46 266.39 454.53 280.1 443.41 289.92C430.29 301.5 413.62 300.48 405.03 284.44C401.3 277.48 400.56 270.27 398.12 263C398.12 255.67 398.12 248.33 398.12 241C400.08 234.82 400.35 227.91 402.12 221.56C406.87 204.59 414.74 187.5 429.19 176.66C440.39 168.25 454.53 168.78 462.85 180.68C467.03 186.66 468.18 193.48 470.9 200.01ZM215.3 202.12C215.76 209.42 216.22 216.73 216.68 224.03C216.83 225.35 216.97 226.68 217.12 228C217.32 229.64 217.53 231.27 217.73 232.91C219.88 255.29 229.77 276.93 237.73 297.72C243.25 312.15 248.73 326.64 253.05 341.49C254.63 346.93 255.36 352.61 256.99 358C257.22 360.95 257.44 363.9 257.67 366.84C257.67 368.19 257.67 369.54 257.67 370.89C257.44 372.6 257.21 374.3 256.98 376C256.1 377.89 255.53 380 253.92 381.43C245.93 388.54 230.3 377.92 223.77 372.7C201.51 354.92 184.69 328.86 160.4 314.06C154.33 310.36 147.86 308.9 141.3 306.5C144.98 302.75 150.82 300.6 155.31 297.82C161.53 293.99 167.52 289.36 172.78 284.28C195.46 262.31 206.96 231.96 215.3 202.12ZM487.26 235.86C487.5 234.24 487.73 232.62 487.97 231C488.08 230.32 488.19 229.64 488.3 228.96C488.54 225.97 488.78 222.99 489.02 220C489.18 214.23 489.34 208.46 489.5 202.7C493.9 209.58 495.5 218.69 498.16 226.38C502.79 239.78 508.53 253.19 516.59 264.9C523.56 275.01 531.75 284.51 541.68 291.84C548.17 296.63 558.81 301.23 564.03 306.5C557.4 308.79 550.75 310.43 544.71 314.21C521.56 328.67 506.28 352.68 485.22 369.69C478.01 375.51 461.58 389.34 452.07 381.44C448.74 378.66 448.16 373.53 448.03 369.5C447.69 359.88 449.86 350.36 452.6 341.2C458.29 322.16 465.4 303.64 472.57 285.11C478.63 269.43 485.52 252.7 487.26 235.86ZM98.92 307C98.93 301.67 98.94 296.33 98.95 291C100.96 284.67 102.17 273.6 109.5 271.3C113.09 275.29 112.97 282.64 114.74 287.69C117.85 296.52 123.35 304.11 127.31 312.5C123.88 314.58 119.73 315.43 116.51 318C111.89 321.69 109.95 327.62 107.5 332.75C102.21 328.48 100.36 313.72 98.92 307ZM596.5 271.18C601.75 273.92 603.93 280.97 605.28 286.41C608.41 299.05 605.97 322.14 598.5 333.11C595.24 328.22 593.86 322.31 589.28 318.22C586.1 315.38 581.98 314.41 578.3 312.5C581.88 303.51 587.97 295.86 590.93 286.46C592.43 281.7 592.57 274.39 596.5 271.18ZM135 327.86C137.33 327.85 139.67 327.84 142 327.83C166.29 332.76 184.47 354.79 193.76 376.73C196.01 382.04 197.12 387.63 199.07 393C199.27 394.69 199.48 396.38 199.68 398.07C199.64 412.97 198.18 419.87 184 425.94C181.33 425.96 178.67 425.97 176 425.99C172.16 424.61 168.24 423.76 164.51 421.99C161.34 420.47 158.47 418.22 155.33 416.84C154.38 416.04 153.44 415.24 152.5 414.45C153.25 415.98 154 417.52 154.75 419.05C156.98 423.71 160.39 427.93 163.36 432.16C170.99 443 179.23 453.84 184.4 466.13C191.47 482.97 192.63 501 198.45 518.12C206.66 542.24 228.47 565.38 255.06 567.31C261.4 567.31 267.74 567.32 274.08 567.32C288.19 566.55 301.55 559.92 314.67 555.23C329.59 549.89 344.21 546.59 360.12 547.28C361.75 547.47 363.37 547.66 365 547.84C375.56 550.85 385.97 553.42 396.32 557.24C407.52 561.36 418.82 566.64 430.91 567.32C436.58 568.7 444.32 568.72 450.01 567.31C456.22 566.97 462.31 564.94 468.02 562.52C485.41 555.16 499.21 538.89 505.78 521.34C512.42 503.6 513.29 485.47 520.75 467.3C528.11 449.32 541.61 435.49 551.12 418.84C552 417.39 552.88 415.95 553.76 414.5C552.45 415.32 551.14 416.14 549.82 416.95C546.64 418.42 543.86 420.68 540.65 422.18C537.19 423.81 533.52 424.6 530 425.96C527.33 425.95 524.67 425.95 522 425.95C511.47 421.96 509.24 418.67 505.87 408C505.87 404 505.87 400 505.87 396C507.28 390.52 508.37 385.1 510.35 379.77C517.5 360.5 532.33 340.72 551.19 331.65C554.69 329.97 558.37 329.17 562 327.88C564.67 327.86 567.33 327.83 570 327.81C585.18 331.85 585.54 338.4 590.87 351.18C591.21 353.12 591.55 355.06 591.89 357.01C591.89 361.01 591.89 365.01 591.89 369.01C591.55 371.61 591.21 374.22 590.87 376.83C589.25 381.18 588.69 386.07 587.16 390.54C584.29 398.95 580.66 407.1 576.4 414.89C565.81 434.25 551.07 451.34 542.2 471.66C535.14 487.83 533.27 505.34 528.6 522.2C521.27 548.72 504.29 571.84 479.01 583.5C470 587.65 460.73 589.58 451 591.14C446 591.15 441 591.15 436 591.15C423.76 589.48 412.28 586.96 400.63 582.8C389.73 578.91 378.53 573.45 367.06 571.69C365.47 571.41 363.87 571.13 362.28 570.84C351.54 567.12 338.58 571.21 328.17 574.58C316.2 578.46 304.55 583.42 292.42 586.79C284.7 588.93 276.91 590 269 591.15C264.33 591.15 259.67 591.15 255 591.15C216.65 585.99 190.96 563.45 178.45 527.1C172.49 509.76 171.32 491.2 164.37 474.15C154.34 449.55 135.92 429.11 124.23 405.29C113.29 383 103.4 337.41 135 327.86ZM348 350.76C350.33 350.74 352.67 350.72 355 350.71C376.11 352.54 397.93 359.81 410.5 378.01C420.42 392.4 424.72 410 435.66 423.82C448.69 440.29 469.15 448.97 480.87 466.66C494.95 487.9 490.49 519.97 471.02 536.52C464.35 542.19 457.04 544.27 449 547.06C447.32 547.27 445.64 547.48 443.95 547.68C440.27 547.69 436.59 547.69 432.9 547.69C431.27 547.51 429.63 547.32 428 547.13C402.07 541.39 378.79 525.96 351.5 526.41C339.41 526.61 327.63 529.74 316.29 533.72C307.82 536.7 299.81 540.88 291.27 543.69C272.22 549.96 250.14 549.88 234.23 536.29C230.26 532.9 226.72 528.89 224.11 524.38C220.26 517.72 218.44 510.44 216.82 503C216.65 501.36 216.48 499.72 216.3 498.07C216.31 495.76 216.32 493.44 216.33 491.12C216.5 489.42 216.68 487.71 216.85 486C219.43 476.94 222.2 469.18 228.2 461.71C238.98 448.3 255.04 440.66 266.35 427.83C273.42 419.82 278.89 410.5 283.32 400.81C286.88 393.03 290.1 384.64 295.2 377.71C307.94 360.41 327.51 353.57 348 350.76Z" fill="#154b6e" fill-rule="evenodd" stroke="#154b6e" stroke-width="0.25" stroke-linejoin="round"/>
<path d="M372 11.03C359.67 11.02 347.33 11.02 335 11.01C337.35 9.51 340.53 10 343.5 10C350.17 10 356.83 10 363.5 10C366.48 10 369.66 9.51 372 11.03ZM331.02 11.32C327.35 11.56 323.67 11.8 320 12.04C320.17 11.69 320.33 11.35 320.5 11C324.01 11.11 327.51 11.21 331.02 11.32ZM375.94 11.33C379.13 11.22 382.31 11.11 385.5 11C385.67 11.34 385.83 11.69 386 12.03C382.65 11.8 379.3 11.56 375.94 11.33ZM318.08 12.32C315.39 12.57 312.69 12.82 310 13.07C310.17 12.71 310.33 12.36 310.5 12C313.03 12.11 315.56 12.22 318.08 12.32ZM388.12 12.31C390.58 12.21 393.04 12.1 395.5 12C395.67 12.35 395.83 12.69 396 13.04C393.37 12.8 390.74 12.56 388.12 12.31ZM308.91 13.3C306.94 13.53 304.97 13.76 303 13.99C303.17 13.66 303.33 13.33 303.5 13C305.3 13.1 307.1 13.2 308.91 13.3ZM397.09 13.29C398.89 13.2 400.7 13.1 402.5 13C402.67 13.35 402.83 13.69 403 14.04C401.03 13.79 399.06 13.54 397.09 13.29ZM301.1 14.32C299.05 14.58 297.01 14.84 294.96 15.09C295.14 14.73 295.32 14.36 295.5 14C297.37 14.11 299.23 14.21 301.1 14.32ZM404.06 14.29C405.87 14.2 407.69 14.1 409.5 14C409.71 14.36 409.91 14.72 410.12 15.08C408.1 14.82 406.08 14.56 404.06 14.29ZM294.96 15.09C293.31 15.42 291.65 15.75 290 16.08C290.17 15.72 290.33 15.36 290.5 15C291.99 15.03 293.48 15.06 294.96 15.09ZM410.12 15.08C411.91 15.05 413.71 15.03 415.5 15C415.69 15.36 415.88 15.72 416.07 16.09C414.08 15.75 412.1 15.41 410.12 15.08ZM416.07 16.09C417.54 16.06 419.02 16.03 420.5 16C420.67 16.36 420.83 16.72 421 17.08C419.36 16.75 417.71 16.42 416.07 16.09ZM345 36.14C344.83 36.43 344.67 36.71 344.5 37C340.66 36.89 336.82 36.79 332.98 36.68C336.98 36.5 340.99 36.32 345 36.14ZM360 36.11C364.3 36.31 368.6 36.51 372.9 36.7C368.77 36.8 364.63 36.9 360.5 37C360.33 36.7 360.17 36.41 360 36.11ZM326 37.16C325.83 37.44 325.67 37.72 325.5 38C323.72 37.91 321.93 37.81 320.15 37.72C322.1 37.53 324.05 37.35 326 37.16ZM380 37.17C381.71 37.33 383.42 37.5 385.14 37.67C383.59 37.78 382.05 37.89 380.5 38C380.33 37.72 380.17 37.44 380 37.17ZM316 38.15C315.83 38.43 315.67 38.72 315.5 39C314.02 38.9 312.55 38.81 311.07 38.71C312.71 38.53 314.36 38.34 316 38.15ZM264.1 105C264.4 105.17 264.7 105.33 265 105.5C265 108.17 265 110.83 265 113.5C264.7 113.67 264.41 113.83 264.11 114C264.11 111 264.11 108 264.1 105ZM440.91 106C440.93 107.67 440.95 109.33 440.97 111C440.64 110.83 440.32 110.67 440 110.5C440 109.17 440 107.83 440 106.5C440.3 106.33 440.61 106.17 440.91 106ZM441.3 114.16C441.31 117.8 441.32 121.45 441.32 125.09C441.32 121.45 441.31 117.8 441.3 114.16ZM264.1 126C264.4 126.17 264.7 126.33 265 126.5C264.89 128.05 264.78 129.6 264.67 131.15C264.48 129.43 264.29 127.72 264.1 126ZM440.99 128C440.75 129.96 440.52 131.93 440.28 133.89C440.19 132.09 440.09 130.3 440 128.5C440.33 128.33 440.66 128.17 440.99 128ZM465.24 147C465.49 147.17 465.75 147.33 466 147.5C465.89 149.31 465.79 151.12 465.68 152.93C465.53 150.95 465.39 148.98 465.24 147ZM239.83 148C239.88 152.62 239.93 157.24 239.98 161.86C239.65 161.74 239.33 161.62 239 161.5C239 157.17 239 152.83 239 148.5C239.28 148.33 239.55 148.17 239.83 148ZM263 170.7C261.33 170.69 259.67 170.68 258 170.68C258.17 170.45 258.33 170.23 258.5 170C259.83 170 261.17 170 262.5 170C262.67 170.23 262.83 170.46 263 170.7ZM470.9 200.01C471.27 200.17 471.63 200.34 472 200.5C471.9 202.32 471.8 204.14 471.69 205.96C471.43 203.98 471.17 201.99 470.9 200.01ZM216.68 224.03C216.22 216.73 215.76 209.42 215.3 202.12C215.7 201.74 216.1 201.37 216.5 201C216.56 208.68 216.62 216.35 216.68 224.03ZM471.93 207C472.29 207.17 472.64 207.33 473 207.5C473 213.5 473 219.5 473 225.5C472.65 225.67 472.3 225.83 471.94 226C471.94 219.67 471.93 213.33 471.93 207ZM489.02 220C488.78 222.99 488.54 225.97 488.3 228.96C488.2 226.14 488.1 223.32 488 220.5C488.34 220.33 488.68 220.17 489.02 220ZM233.33 220.9C233.47 222.93 233.6 224.97 233.74 227C233.49 226.83 233.25 226.67 233 226.5C233.11 224.63 233.22 222.77 233.33 220.9ZM471.7 227.09C471.8 229.23 471.9 231.36 472 233.5C471.64 233.67 471.29 233.83 470.93 234C471.19 231.7 471.45 229.4 471.7 227.09ZM217.12 228C217.41 228.17 217.71 228.33 218 228.5C217.91 229.97 217.82 231.44 217.73 232.91C217.53 231.27 217.32 229.64 217.12 228ZM487.97 231C487.73 232.62 487.5 234.24 487.26 235.86C487.18 234.41 487.09 232.95 487 231.5C487.32 231.33 487.65 231.17 487.97 231ZM305.99 232C306.33 232.17 306.66 232.33 307 232.5C306.9 233.98 306.8 235.47 306.7 236.95C306.47 235.3 306.23 233.65 305.99 232ZM307.03 239C307.35 239.17 307.68 239.33 308 239.5C307.89 242.34 307.78 245.19 307.67 248.03C307.46 245.02 307.24 242.01 307.03 239ZM398.12 241C398.12 248.33 398.12 255.67 398.12 263C396.24 260.35 396.24 243.65 398.12 241ZM307.67 257.94C307.78 260.13 307.89 262.31 308 264.5C307.68 264.67 307.36 264.83 307.04 265C307.25 262.65 307.46 260.29 307.67 257.94ZM98.95 291C98.94 296.33 98.93 301.67 98.92 307C98.61 306.83 98.31 306.67 98 306.5C98 301.5 98 296.5 98 291.5C98.32 291.33 98.64 291.17 98.95 291ZM660.29 296.06C660.54 297.71 660.78 299.35 661.03 301C660.69 300.83 660.34 300.67 660 300.5C660.1 299.02 660.19 297.54 660.29 296.06ZM661.29 302.1C661.56 304.07 661.83 306.03 662.1 308C661.73 307.83 661.37 307.67 661 307.5C661.1 305.7 661.19 303.9 661.29 302.1ZM43.7 304.03C43.8 305.52 43.9 307.01 44 308.5C43.68 308.67 43.36 308.83 43.03 309C43.26 307.34 43.48 305.69 43.7 304.03ZM662.33 308.86C662.59 311.27 662.84 313.67 663.1 316.07C662.73 315.88 662.37 315.69 662 315.5C662.11 313.29 662.22 311.07 662.33 308.86ZM42.7 311.03C42.8 312.86 42.9 314.68 43 316.5C42.68 316.67 42.35 316.83 42.03 317C42.25 315.01 42.48 313.02 42.7 311.03ZM663.1 316.07C663.44 320.07 663.77 324.06 664.11 328.05C663.74 327.86 663.37 327.68 663 327.5C663.03 323.69 663.07 319.88 663.1 316.07ZM17.77 319C17.62 321.02 17.47 323.04 17.32 325.05C17.21 323.2 17.11 321.35 17 319.5C17.26 319.33 17.52 319.17 17.77 319ZM41.7 320.14C41.8 323.59 41.9 327.05 42 330.5C41.66 330.67 41.33 330.83 40.99 331C41.23 327.38 41.46 323.76 41.7 320.14ZM687.86 320.08C688.24 320.22 688.62 320.36 689 320.5C688.89 325.99 688.78 331.49 688.67 336.98C688.4 331.35 688.13 325.71 687.86 320.08ZM142 327.83C139.67 327.84 137.33 327.85 135 327.86C135.17 327.58 135.33 327.29 135.5 327C137.5 327 139.5 327 141.5 327C141.67 327.28 141.83 327.55 142 327.83ZM570 327.81C567.33 327.83 564.67 327.86 562 327.88C562.17 327.59 562.33 327.29 562.5 327C564.83 327 567.17 327 569.5 327C569.67 327.27 569.83 327.54 570 327.81ZM664.11 328.05C664.31 330.03 664.51 332.02 664.71 334C664.47 333.83 664.24 333.67 664 333.5C664.04 331.68 664.08 329.86 664.11 328.05ZM40.67 336.86C40.67 345.24 40.68 353.61 40.68 361.99C40.68 353.61 40.67 345.24 40.67 336.86ZM16.72 338C16.72 345 16.72 352 16.73 359C16.72 352 16.72 345 16.72 338ZM688.87 339C689.25 339.17 689.62 339.33 690 339.5C690 345.17 690 350.83 690 356.5C689.63 356.67 689.25 356.83 688.88 357C688.88 351 688.88 345 688.87 339ZM355 350.71C352.67 350.72 350.33 350.74 348 350.76C348.17 350.51 348.33 350.25 348.5 350C350.5 350 352.5 350 354.5 350C354.67 350.24 354.83 350.47 355 350.71ZM590.87 351.18C591.25 351.29 591.62 351.39 592 351.5C591.96 353.34 591.93 355.17 591.89 357.01C591.55 355.06 591.21 353.12 590.87 351.18ZM591.89 357.01C592.26 357.17 592.63 357.34 593 357.5C593 361.17 593 364.83 593 368.5C592.63 368.67 592.26 368.84 591.89 369.01C591.89 365.01 591.89 361.01 591.89 357.01ZM256.99 358C257.33 358.17 257.66 358.33 258 358.5C257.89 361.28 257.78 364.06 257.67 366.84C257.44 363.9 257.22 360.95 256.99 358ZM688.67 358.88C688.78 364.09 688.89 369.29 689 374.5C688.62 374.64 688.24 374.78 687.86 374.92C688.13 369.58 688.4 364.23 688.67 358.88ZM664.7 363C664.5 364.65 664.31 366.3 664.11 367.96C664.07 366.47 664.04 364.99 664 363.5C664.23 363.33 664.47 363.17 664.7 363ZM40.98 366C41.32 366.17 41.66 366.33 42 366.5C41.89 369.67 41.79 372.85 41.68 376.02C41.45 372.68 41.21 369.34 40.98 366ZM664.11 367.96C663.77 371.94 663.44 375.93 663.1 379.92C663.07 376.11 663.03 372.31 663 368.5C663.37 368.32 663.74 368.14 664.11 367.96ZM591.89 369.01C591.92 371.51 591.96 374 592 376.5C591.62 376.61 591.24 376.72 590.87 376.83C591.21 374.22 591.55 371.61 591.89 369.01ZM17.32 370.93C17.47 372.62 17.61 374.31 17.75 376C17.5 375.83 17.25 375.67 17 375.5C17.11 373.98 17.22 372.46 17.32 370.93ZM257.67 370.89C257.78 372.43 257.89 373.96 258 375.5C257.66 375.67 257.32 375.83 256.98 376C257.21 374.3 257.44 372.6 257.67 370.89ZM42.02 379C42.35 379.17 42.67 379.33 43 379.5C42.9 381.61 42.81 383.73 42.71 385.84C42.48 383.56 42.25 381.28 42.02 379ZM663.1 379.92C662.84 382.61 662.57 385.31 662.31 388.01C662.21 385.5 662.1 383 662 380.5C662.37 380.31 662.73 380.11 663.1 379.92ZM662.07 389C661.81 390.96 661.55 392.93 661.29 394.89C661.19 393.1 661.1 391.3 661 389.5C661.36 389.33 661.71 389.17 662.07 389ZM199.07 393C199.38 393.17 199.69 393.33 200 393.5C199.89 395.02 199.79 396.55 199.68 398.07C199.48 396.38 199.27 394.69 199.07 393ZM44.01 394C44.34 394.17 44.67 394.33 45 394.5C44.91 395.97 44.82 397.45 44.72 398.92C44.49 397.28 44.25 395.64 44.01 394ZM505.87 396C505.87 400 505.87 404 505.87 408C505.58 407.83 505.29 407.67 505 407.5C505 403.83 505 400.17 505 396.5C505.29 396.33 505.58 396.17 505.87 396ZM661.02 396C660.78 397.63 660.53 399.27 660.28 400.9C660.19 399.43 660.09 397.97 660 396.5C660.34 396.33 660.68 396.17 661.02 396ZM155.33 416.84C155.13 417.58 154.94 418.31 154.75 419.05C154 417.52 153.25 415.98 152.5 414.45C153.44 415.24 154.38 416.04 155.33 416.84ZM551.12 418.84C550.69 418.21 550.25 417.58 549.82 416.95C551.14 416.14 552.45 415.32 553.76 414.5C552.88 415.95 552 417.39 551.12 418.84ZM176 425.99C178.67 425.97 181.33 425.96 184 425.94C183.83 426.29 183.67 426.65 183.5 427C181.17 427 178.83 427 176.5 427C176.33 426.66 176.17 426.32 176 425.99ZM522 425.95C524.67 425.95 527.33 425.95 530 425.96C529.83 426.3 529.67 426.65 529.5 427C527.17 427 524.83 427 522.5 427C522.33 426.65 522.17 426.3 522 425.95ZM216.85 486C216.68 487.71 216.5 489.42 216.33 491.12C216.22 489.58 216.11 488.04 216 486.5C216.28 486.33 216.57 486.17 216.85 486ZM216.3 498.07C216.48 499.72 216.65 501.36 216.82 503C216.55 502.83 216.27 502.67 216 502.5C216.1 501.02 216.2 499.55 216.3 498.07ZM360.12 547.28C361.58 547.19 363.04 547.09 364.5 547C364.67 547.28 364.83 547.56 365 547.84C363.37 547.66 361.75 547.47 360.12 547.28ZM428 547.13C429.63 547.32 431.27 547.51 432.9 547.69C431.44 547.8 429.97 547.9 428.5 548C428.33 547.71 428.17 547.42 428 547.13ZM449 547.06C448.83 547.37 448.67 547.69 448.5 548C446.98 547.89 445.47 547.79 443.95 547.68C445.64 547.48 447.32 547.27 449 547.06ZM255.06 567.31C261.4 567.31 267.74 567.32 274.08 567.32C267.74 567.32 261.4 567.31 255.06 567.31ZM430.91 567.32C437.27 567.32 443.64 567.32 450.01 567.31C444.32 568.72 436.58 568.7 430.91 567.32ZM362.28 570.84C363.87 571.13 365.47 571.41 367.06 571.69C365.54 571.8 364.02 571.9 362.5 572C362.43 571.61 362.36 571.23 362.28 570.84ZM255 591.15C259.67 591.15 264.33 591.15 269 591.15C268.83 591.43 268.67 591.72 268.5 592C264.17 592 259.83 592 255.5 592C255.33 591.72 255.17 591.44 255 591.15ZM436 591.15C441 591.15 446 591.15 451 591.14C450.83 591.43 450.67 591.71 450.5 592C445.83 592 441.17 592 436.5 592C436.33 591.72 436.17 591.44 436 591.15ZM318.14 659.29C319.93 659.19 321.71 659.1 323.5 659C323.67 659.28 323.83 659.56 324 659.83C322.05 659.65 320.09 659.47 318.14 659.29ZM387.84 659.28C385.89 659.46 383.95 659.64 382 659.82C382.17 659.55 382.33 659.27 382.5 659C384.28 659.09 386.06 659.19 387.84 659.28ZM329.84 660.33C332.72 660.22 335.61 660.11 338.5 660C338.67 660.29 338.83 660.58 339 660.87C335.95 660.69 332.89 660.51 329.84 660.33ZM376.1 660.32C373.07 660.5 370.03 660.67 367 660.85C367.17 660.56 367.33 660.28 367.5 660C370.37 660.11 373.23 660.22 376.1 660.32ZM311.15 681.86C314.06 682.21 316.98 682.56 319.89 682.91C317.1 682.94 314.3 682.97 311.5 683C311.38 682.62 311.27 682.24 311.15 681.86ZM394.81 681.86C394.71 682.24 394.6 682.62 394.5 683C391.95 682.89 389.41 682.78 386.86 682.67C389.51 682.4 392.16 682.13 394.81 681.86ZM319.89 682.91C323.63 683.16 327.36 683.42 331.09 683.67C327.56 683.78 324.03 683.89 320.5 684C320.3 683.64 320.1 683.27 319.89 682.91ZM386 682.88C385.83 683.26 385.67 683.63 385.5 684C382.02 683.89 378.53 683.79 375.05 683.68C378.7 683.42 382.35 683.15 386 682.88ZM333 683.92C346.67 683.91 360.33 683.9 374 683.89C371.52 685.64 367.74 685 364.5 685C357.17 685 349.83 685 342.5 685C339.27 685 335.5 685.63 333 683.92Z" fill="#ffffff" fill-rule="evenodd" stroke="#ffffff" stroke-width="0.25" stroke-linejoin="round"/>
</svg>